<mxfile host="Electron" agent="Mozilla/5.0 (Macintosh; Intel Mac OS X 10_15_7) AppleWebKit/537.36 (KHTML, like Gecko) draw.io/28.1.2 Chrome/138.0.7204.243 Electron/37.4.0 Safari/537.36" version="28.1.2">
  <diagram name="MVC Pattern - DotShoppingList" id="mvc-dotshoppinglist">
    <mxGraphModel dx="1106" dy="832" grid="1" gridSize="10" guides="1" tooltips="1" connect="1" arrows="1" fold="1" page="1" pageScale="1" pageWidth="1169" pageHeight="827" math="0" shadow="0">
      <root>
        <mxCell id="0" />
        <mxCell id="1" parent="0" />
        <mxCell id="frontend-container" value="Frontend (Vue.js) - MVVM" style="rounded=1;whiteSpace=wrap;html=1;fillColor=#e1f5fe;strokeColor=#01579b;fontSize=16;fontStyle=1;verticalAlign=top;spacingTop=10;" parent="1" vertex="1">
          <mxGeometry x="50" y="120" width="500" height="300" as="geometry" />
        </mxCell>
        <mxCell id="frontend-model" value="MODEL&#xa;• API Types&#xa;• Server Data&#xa;• LocalStorage" style="rounded=1;whiteSpace=wrap;html=1;fillColor=#c8e6c9;strokeColor=#388e3c;fontSize=12;" parent="1" vertex="1">
          <mxGeometry x="80" y="350" width="140" height="60" as="geometry" />
        </mxCell>
        <mxCell id="frontend-view" value="VIEW&#xa;• Templates (Vue)&#xa;• Data Binding&#xa;• {{ }}, v-model, v-for" style="rounded=1;whiteSpace=wrap;html=1;fillColor=#ffecb3;strokeColor=#ff8f00;fontSize=12;" parent="1" vertex="1">
          <mxGeometry x="80" y="160" width="140" height="80" as="geometry" />
        </mxCell>
        <mxCell id="frontend-controller" value="VIEWMODEL&#xa;• Components (Script Teil)&#xa;• Pinia Stores (Global)&#xa;• Reactive Data + Methods" style="rounded=1;whiteSpace=wrap;html=1;fillColor=#f3e5f5;strokeColor=#7b1fa2;fontSize=12;" parent="1" vertex="1">
          <mxGeometry x="80" y="260" width="140" height="80" as="geometry" />
        </mxCell>
        <mxCell id="backend-container" value="Backend (ASP.NET Core) - Web API Pattern" style="rounded=1;whiteSpace=wrap;html=1;fillColor=#fff3e0;strokeColor=#ef6c00;fontSize=16;fontStyle=1;verticalAlign=top;spacingTop=10;" parent="1" vertex="1">
          <mxGeometry x="620" y="120" width="500" height="350" as="geometry" />
        </mxCell>
        <mxCell id="backend-controller" value="CONTROLLER&#xa;• ShoppingListApiController&#xa;• REST API Endpoints&#xa;• Koordiniert Model ↔ Service" style="rounded=1;whiteSpace=wrap;html=1;fillColor=#f3e5f5;strokeColor=#7b1fa2;fontSize=12;" parent="1" vertex="1">
          <mxGeometry x="650" y="160" width="160" height="80" as="geometry" />
        </mxCell>
        <mxCell id="service-layer" value="SERVICE LAYER&#xa;(Business Logic)&#xa;• DatabaseService&#xa;• AuthenticationService" style="rounded=1;whiteSpace=wrap;html=1;fillColor=#e8f5e8;strokeColor=#2e7d32;fontSize=12;" parent="1" vertex="1">
          <mxGeometry x="650" y="260" width="160" height="80" as="geometry" />iu
        </mxCell>
        <mxCell id="backend-model" value="MODEL&#xa;• Entity Models&#xa;• DTOs&#xa;• Database Context" style="rounded=1;whiteSpace=wrap;html=1;fillColor=#c8e6c9;strokeColor=#388e3c;fontSize=12;" parent="1" vertex="1">
          <mxGeometry x="650" y="360" width="160" height="80" as="geometry" />
        </mxCell>
        <mxCell id="database" value="SQL Server&#xa;Database" style="shape=cylinder3;whiteSpace=wrap;html=1;boundedLbl=1;backgroundOutline=1;size=15;fillColor=#e3f2fd;strokeColor=#1976d2;fontSize=12;" parent="1" vertex="1">
          <mxGeometry x="900" y="370" width="100" height="60" as="geometry" />
        </mxCell>
        <mxCell id="api-communication" value="REST API&#xa;HTTP/JSON&#xa;Authentication" style="rounded=1;whiteSpace=wrap;html=1;fillColor=#ffcdd2;strokeColor=#d32f2f;fontSize=12;fontStyle=1;" parent="1" vertex="1">
          <mxGeometry x="350" y="270" width="120" height="60" as="geometry" />
        </mxCell>
        <mxCell id="mvc-label" value="MVVM-Web API Hybrid Architecture&lt;div&gt;Frontend: MVVM | Backend: Web API&lt;/div&gt;" style="text;html=1;strokeColor=none;fillColor=none;align=center;verticalAlign=middle;whiteSpace=wrap;rounded=0;fontSize=18;fontStyle=1;fontColor=#1976d2;" parent="1" vertex="1">
          <mxGeometry x="400" y="20" width="350" height="40" as="geometry" />
        </mxCell>
        <mxCell id="tech-frontend" value="MVVM: Vue.js 3 + TypeScript + Pinia" style="text;html=1;strokeColor=none;fillColor=none;align=center;verticalAlign=middle;whiteSpace=wrap;rounded=0;fontSize=10;fontStyle=2;fontColor=#01579b;" parent="1" vertex="1">
          <mxGeometry x="330" y="190" width="180" height="20" as="geometry" />
        </mxCell>
        <mxCell id="tech-backend" value="Web API: ASP.NET Core + Entity Framework" style="text;html=1;strokeColor=none;fillColor=none;align=center;verticalAlign=middle;whiteSpace=wrap;rounded=0;fontSize=10;fontStyle=2;fontColor=#ef6c00;" parent="1" vertex="1">
          <mxGeometry x="880" y="200" width="180" height="20" as="geometry" />
        </mxCell>
        <mxCell id="arrow1" style="endArrow=classic;html=1;rounded=0;strokeColor=#333333;strokeWidth=2;" parent="1" source="frontend-view" target="frontend-controller" edge="1">
          <mxGeometry width="50" height="50" relative="1" as="geometry">
            <mxPoint x="160" y="250" as="sourcePoint" />
            <mxPoint x="210" y="200" as="targetPoint" />
          </mxGeometry>
        </mxCell>
        <mxCell id="arrow2" style="endArrow=classic;html=1;rounded=0;strokeColor=#333333;strokeWidth=2;" parent="1" source="frontend-controller" target="frontend-model" edge="1">
          <mxGeometry width="50" height="50" relative="1" as="geometry">
            <mxPoint x="150" y="350" as="sourcePoint" />
            <mxPoint x="200" y="300" as="targetPoint" />
          </mxGeometry>
        </mxCell>
        <mxCell id="arrow3" style="endArrow=classic;html=1;rounded=0;strokeColor=#333333;strokeWidth=2;" parent="1" source="frontend-model" target="frontend-view" edge="1">
          <mxGeometry width="50" height="50" relative="1" as="geometry">
            <mxPoint x="100" y="350" as="sourcePoint" />
            <mxPoint x="150" y="300" as="targetPoint" />
            <Array as="points">
              <mxPoint x="60" y="380" />
              <mxPoint x="60" y="200" />
            </Array>
          </mxGeometry>
        </mxCell>
        <mxCell id="arrow4" style="endArrow=classic;html=1;rounded=0;strokeColor=#d32f2f;strokeWidth=3;" parent="1" source="frontend-controller" target="api-communication" edge="1">
          <mxGeometry width="50" height="50" relative="1" as="geometry">
            <mxPoint x="230" y="300" as="sourcePoint" />
            <mxPoint x="340" y="300" as="targetPoint" />
          </mxGeometry>
        </mxCell>
        <mxCell id="arrow5" style="endArrow=classic;html=1;rounded=0;strokeColor=#d32f2f;strokeWidth=3;exitX=1;exitY=0.5;exitDx=0;exitDy=0;entryX=0;entryY=1;entryDx=0;entryDy=0;" parent="1" source="api-communication" target="backend-controller" edge="1">
          <mxGeometry width="50" height="50" relative="1" as="geometry">
            <mxPoint x="480" y="300" as="sourcePoint" />
            <mxPoint x="640" y="200" as="targetPoint" />
            <Array as="points">
              <mxPoint x="640" y="240" />
            </Array>
          </mxGeometry>
        </mxCell>
        <mxCell id="arrow6" style="endArrow=classic;html=1;rounded=0;strokeColor=#333333;strokeWidth=2;" parent="1" source="backend-controller" target="service-layer" edge="1">
          <mxGeometry width="50" height="50" relative="1" as="geometry">
            <mxPoint x="730" y="250" as="sourcePoint" />
            <mxPoint x="780" y="200" as="targetPoint" />
          </mxGeometry>
        </mxCell>
        <mxCell id="arrow7" style="endArrow=classic;html=1;rounded=0;strokeColor=#333333;strokeWidth=2;" parent="1" source="service-layer" target="backend-model" edge="1">
          <mxGeometry width="50" height="50" relative="1" as="geometry">
            <mxPoint x="730" y="350" as="sourcePoint" />
            <mxPoint x="780" y="300" as="targetPoint" />
          </mxGeometry>
        </mxCell>
        <mxCell id="arrow8" style="endArrow=classic;html=1;rounded=0;strokeColor=#333333;strokeWidth=2;" parent="1" source="backend-model" target="database" edge="1">
          <mxGeometry width="50" height="50" relative="1" as="geometry">
            <mxPoint x="820" y="400" as="sourcePoint" />
            <mxPoint x="890" y="400" as="targetPoint" />
          </mxGeometry>
        </mxCell>
        <mxCell id="arrow9" style="endArrow=classic;html=1;rounded=0;strokeColor=#2e7d32;strokeWidth=2;dashed=1;" parent="1" source="backend-controller" target="frontend-model" edge="1">
          <mxGeometry width="50" height="50" relative="1" as="geometry">
            <mxPoint x="640" y="220" as="sourcePoint" />
            <mxPoint x="230" y="370" as="targetPoint" />
            <Array as="points">
              <mxPoint x="580" y="200" />
              <mxPoint x="580" y="470" />
              <mxPoint x="150" y="470" />
            </Array>
          </mxGeometry>
        </mxCell>
        <mxCell id="user-actions" value="Two-Way Binding" style="text;html=1;strokeColor=none;fillColor=none;align=center;verticalAlign=middle;whiteSpace=wrap;rounded=0;fontSize=10;fontColor=#333333;" parent="1" vertex="1">
          <mxGeometry x="160" y="240" width="80" height="15" as="geometry" />
        </mxCell>
        <mxCell id="api-request" value="ViewModel → API" style="text;html=1;strokeColor=none;fillColor=none;align=center;verticalAlign=middle;whiteSpace=wrap;rounded=0;fontSize=10;fontColor=#d32f2f;" parent="1" vertex="1">
          <mxGeometry x="370" y="245" width="80" height="15" as="geometry" />
        </mxCell>
        <mxCell id="api-response" value="JSON → Model Update" style="text;html=1;strokeColor=none;fillColor=none;align=center;verticalAlign=middle;whiteSpace=wrap;rounded=0;fontSize=10;fontColor=#2e7d32;" parent="1" vertex="1">
          <mxGeometry x="220" y="372.5" width="120" height="15" as="geometry" />
        </mxCell>
        <mxCell id="data-flow" value="MVC Flow" style="text;html=1;strokeColor=none;fillColor=none;align=center;verticalAlign=middle;whiteSpace=wrap;rounded=0;fontSize=10;fontColor=#333333;" parent="1" vertex="1">
          <mxGeometry x="730" y="340" width="80" height="15" as="geometry" />
        </mxCell>
      </root>
    </mxGraphModel>
  </diagram>
</mxfile>
